<svg width="16" height="16" viewBox="0 0 16 16" xmlns="http://www.w3.org/2000/svg">
  <path d="M3.64062 16H0.371094V5.48828H3.64062V16ZM2.02344 4.04688C1.50781 4.04688 1.0625 3.85938 0.6875 3.48438C0.3125
  3.10937 0.125 2.66406 0.125 2.14844C0.125 1.63281 0.3125 1.1875 0.6875 0.8125C1.0625 0.4375 1.50781 0.25 2.02344
  0.25C2.35156 0.25 2.65625 0.332031 2.9375 0.496094C3.24219 0.660156 3.47656 0.894531 3.64062 1.19922C3.82812 1.48047
  3.92188 1.79688 3.92188 2.14844C3.92188 2.47656 3.82812 2.79297 3.64062 3.09766C3.47656 3.37891 3.24219 3.61328 2.9375
  3.80078C2.65625 3.96484 2.35156 4.04688 2.02344 4.04688ZM15.875 16H12.6055V10.8672C12.6055 10.4688 12.5938 10.1523
  12.5703 9.91797C12.5469 9.66016 12.4883 9.37891 12.3945 9.07422C12.3008 8.74609 12.125 8.5 11.8672 8.33594C11.6328
  8.17188 11.3164 8.08984 10.918 8.08984C10.1445 8.08984 9.61719 8.33594 9.33594 8.82812C9.07812 9.32031 8.94922 9.97656
  8.94922 10.7969V16H5.67969V5.48828H8.84375V6.92969H8.87891C9.11328 6.46094 9.5 6.0625 10.0391 5.73438C10.5781 5.38281
  11.2227 5.20703 11.9727 5.20703C12.7695 5.20703 13.4258 5.33594 13.9414 5.59375C14.4805 5.82813 14.8789 6.19141 15.1367
  6.68359C15.418 7.15234 15.6055 7.66797 15.6992 8.23047C15.8164 8.79297 15.875 9.46094 15.875 10.2344V16Z" fill="#fbfbfb"/>
</svg>
