<svg width="127" height="16" viewBox="0 0 127 16" fill="none" xmlns="http://www.w3.org/2000/svg">
<path d="M0.650391 15V0.78125H5.29883C6.8418 0.78125 8.00065 1.10026 8.77539 1.73828C9.55664 2.3763 9.94727 3.32031 9.94727 4.57031C9.94727 5.23438 9.75846 5.82357 9.38086 6.33789C9.00326 6.8457 8.48893 7.23958 7.83789 7.51953C8.60612 7.73438 9.21159 8.14453 9.6543 8.75C10.1035 9.34896 10.3281 10.0651 10.3281 10.8984C10.3281 12.1745 9.91471 13.1771 9.08789 13.9062C8.26107 14.6354 7.09245 15 5.58203 15H0.650391ZM2.52539 8.34961V13.4668H5.62109C6.49349 13.4668 7.18034 13.2422 7.68164 12.793C8.18945 12.3372 8.44336 11.7122 8.44336 10.918C8.44336 9.20573 7.51237 8.34961 5.65039 8.34961H2.52539ZM2.52539 6.8457H5.35742C6.17773 6.8457 6.83203 6.64062 7.32031 6.23047C7.8151 5.82031 8.0625 5.26367 8.0625 4.56055C8.0625 3.7793 7.83464 3.21289 7.37891 2.86133C6.92318 2.50326 6.22982 2.32422 5.29883 2.32422H2.52539V6.8457ZM21.5629 11.2891H15.6059L14.268 15H12.3344L17.7641 0.78125H19.4047L24.8441 15H22.9203L21.5629 11.2891ZM16.1723 9.74609H21.0063L18.5844 3.0957L16.1723 9.74609ZM29.243 13.4668H35.9813V15H27.3582V0.78125H29.243V13.4668ZM45.8488 2.32422H41.2785V15H39.4133V2.32422H34.8527V0.78125H45.8488V2.32422ZM50.5699 15H48.6949V0.78125H50.5699V15ZM65.0664 10.4883C64.8906 11.9922 64.334 13.1543 63.3965 13.9746C62.4655 14.7884 61.2253 15.1953 59.6758 15.1953C57.9961 15.1953 56.6484 14.5931 55.6328 13.3887C54.6237 12.1842 54.1191 10.5729 54.1191 8.55469V7.1875C54.1191 5.86589 54.3535 4.70378 54.8223 3.70117C55.2975 2.69857 55.9681 1.93034 56.834 1.39648C57.6999 0.85612 58.7025 0.585938 59.8418 0.585938C61.3522 0.585938 62.5632 1.00911 63.4746 1.85547C64.3861 2.69531 64.9167 3.86068 65.0664 5.35156H63.1816C63.0189 4.21875 62.6641 3.39844 62.1172 2.89062C61.5768 2.38281 60.8184 2.12891 59.8418 2.12891C58.6439 2.12891 57.7031 2.57161 57.0195 3.45703C56.3424 4.34245 56.0039 5.60221 56.0039 7.23633V8.61328C56.0039 10.1562 56.3262 11.3835 56.9707 12.2949C57.6152 13.2064 58.5169 13.6621 59.6758 13.6621C60.7174 13.6621 61.515 13.4277 62.0684 12.959C62.6283 12.4837 62.9993 11.6602 63.1816 10.4883H65.0664ZM75.8812 12.0703H70.7445L69.768 15H66.6527L71.9457 0.78125H74.6605L79.9828 15H76.8676L75.8812 12.0703ZM71.5355 9.69727H75.0902L73.3031 4.375L71.5355 9.69727ZM87.1746 9.79492H84.8406V15H81.9109V0.78125H87.1941C88.8738 0.78125 90.1694 1.1556 91.0809 1.9043C91.9923 2.65299 92.448 3.71094 92.448 5.07812C92.448 6.04818 92.2365 6.85872 91.8133 7.50977C91.3966 8.1543 90.7618 8.66862 89.909 9.05273L92.9852 14.8633V15H89.8406L87.1746 9.79492ZM84.8406 7.42188H87.2039C87.9396 7.42188 88.5092 7.23633 88.9129 6.86523C89.3165 6.48763 89.5184 5.97005 89.5184 5.3125C89.5184 4.64193 89.3263 4.11458 88.9422 3.73047C88.5646 3.34635 87.9819 3.1543 87.1941 3.1543H84.8406V7.42188ZM106.446 10.2637C106.336 11.7936 105.769 12.998 104.747 13.877C103.732 14.7559 102.39 15.1953 100.724 15.1953C98.9009 15.1953 97.4654 14.5833 96.4172 13.3594C95.3755 12.1289 94.8547 10.4427 94.8547 8.30078V7.43164C94.8547 6.06445 95.0956 4.86003 95.5773 3.81836C96.0591 2.77669 96.746 1.97917 97.6379 1.42578C98.5363 0.865885 99.578 0.585938 100.763 0.585938C102.404 0.585938 103.725 1.02539 104.728 1.9043C105.73 2.7832 106.31 4.01693 106.466 5.60547H103.536C103.465 4.6875 103.208 4.02344 102.765 3.61328C102.329 3.19661 101.661 2.98828 100.763 2.98828C99.7863 2.98828 99.0539 3.33984 98.5656 4.04297C98.0839 4.73958 97.8365 5.82357 97.8234 7.29492V8.36914C97.8234 9.9056 98.0546 11.0286 98.5168 11.7383C98.9855 12.4479 99.7212 12.8027 100.724 12.8027C101.629 12.8027 102.303 12.5977 102.745 12.1875C103.195 11.7708 103.452 11.1296 103.517 10.2637H106.446ZM120.543 15H117.613V8.90625H111.9V15H108.97V0.78125H111.9V6.54297H117.613V0.78125H120.543V15ZM123.672 13.6133C123.672 13.1641 123.822 12.7995 124.121 12.5195C124.427 12.2396 124.808 12.0996 125.264 12.0996C125.726 12.0996 126.107 12.2396 126.406 12.5195C126.712 12.7995 126.865 13.1641 126.865 13.6133C126.865 14.056 126.715 14.4173 126.416 14.6973C126.117 14.9707 125.732 15.1074 125.264 15.1074C124.801 15.1074 124.421 14.9707 124.121 14.6973C123.822 14.4173 123.672 14.056 123.672 13.6133Z" fill="#FBFBFB"/>
</svg>
