<svg width="16" height="17" viewBox="0 0 16 17" fill="none" xmlns="http://www.w3.org/2000/svg">
<path d="M14.0625 0.375C14.5312 0.375 14.9297 0.539062 15.2578 0.867187C15.5859 1.19531 15.75 1.59375 15.75 2.0625L15.75 14.4375C15.75 14.9062 15.5859 15.3047 15.2578 15.6328C14.9297 15.9609 14.5313 16.125 14.0625 16.125L1.6875 16.125C1.21875 16.125 0.820313 15.9609 0.492188 15.6328C0.164063 15.3047 0 14.9063 0 14.4375L0 2.0625C0 1.59375 0.164062 1.19531 0.492187 0.867188C0.820312 0.539063 1.21875 0.375 1.6875 0.375L14.0625 0.375ZM11.1797 13.1719C11.2266 13.125 11.2266 13.0195 11.1797 12.8555L10.6875 11.4492C10.6641 11.3555 10.6172 11.2969 10.5469 11.2734C10.4766 11.25 10.3828 11.2617 10.2656 11.3086C9.77344 11.4961 9.39844 11.5195 9.14063 11.3789C8.88281 11.2148 8.75391 10.9336 8.75391 10.5352L8.75391 7.61719L10.582 7.61719C10.7227 7.61719 10.793 7.54687 10.793 7.40625L10.793 5.57812C10.793 5.4375 10.7227 5.36719 10.582 5.36719L8.75391 5.36719L8.75391 2.83594C8.75391 2.69531 8.68359 2.625 8.54297 2.625L6.99609 2.625C6.78516 2.625 6.66797 2.74219 6.64453 2.97656C6.55078 4.28906 5.92969 5.14453 4.78125 5.54297C4.61719 5.61328 4.53516 5.73047 4.53516 5.89453L4.53516 7.40625C4.53516 7.54688 4.60547 7.61719 4.74609 7.61719L5.80078 7.61719L5.80078 10.7812C5.80078 11.1094 5.84766 11.4375 5.94141 11.7656C6.03516 12.0938 6.1875 12.4219 6.39844 12.75C6.63281 13.0781 6.97266 13.3477 7.41797 13.5586C7.86328 13.7695 8.40234 13.875 9.03516 13.875C10.0195 13.875 10.7344 13.6406 11.1797 13.1719Z" fill="#FBFBFB"/>
</svg>
